
        <svg xmlns="http://www.w3.org/2000/svg" xmlns:xlink="http://www.w3.org/1999/xlink" version="1.1" width="2232.652329314468" height="3232.8085374816956" viewBox="0 0 2232.652329314468 3232.8085374816956">
			
			<g transform="scale(11.640426874084783) translate(10, 10)">
				<defs id="SvgjsDefs1030"/><g id="SvgjsG1031" featureKey="monogramFeature-0" transform="matrix(3.828021082668747,0,0,3.828021082668747,13.961161567492255,-51.448598094081)" fill="#fff"><path d="M35.76 62.16 l-25.5 0 l-8.16 -8.16 l0 -40.56 l17.16 17.16 l0 21.9 l6.9 0 l7.8 7.8 z M3.48 53.28 l14.4 0 l0 -22.14 l-14.4 -14.4 l0 36.54 z M32.46 60.78 l-6.9 -6.9 l-21.66 0 l6.9 6.9 l21.66 0 z"/></g><g id="SvgjsG1032" featureKey="nameFeature-0" transform="matrix(1.3934754167864027,0,0,1.3934754167864027,-3.3443431265621113,190.27829499856318)" fill="#fff"><path d="M9.04 33.92 l13.16 0 l0 6.08 l-19.8 0 l0 -28 l6.64 0 l0 21.92 z M33.394 40.56 c-6.64 0 -11.2 -4.36 -11.2 -10.72 c0 -6.12 4.28 -10.8 10.8 -10.8 c6.76 0 10.68 4.68 10.68 10.56 c0 0.72 -0.04 1.44 -0.16 2.12 l-15.08 0 c0.4 1.92 1.8 3.52 5.08 3.52 c2.16 0 3.4 -0.84 4.08 -2.08 l5.76 1.68 c-1.08 2.52 -4.52 5.72 -9.96 5.72 z M28.434 27.880000000000003 l9 0 c-0.2 -1.84 -1.84 -3.48 -4.48 -3.48 s-4.24 1.76 -4.52 3.48 z M59.827999999999996 19.6 l7 0 l-8.24 20.4 l-7.2 0 l-8.24 -20.4 l7.04 0 l4.8 13.12 z M77.50200000000001 40.56 c-6.64 0 -11.2 -4.36 -11.2 -10.72 c0 -6.12 4.28 -10.8 10.8 -10.8 c6.76 0 10.68 4.68 10.68 10.56 c0 0.72 -0.04 1.44 -0.16 2.12 l-15.08 0 c0.4 1.92 1.8 3.52 5.08 3.52 c2.16 0 3.4 -0.84 4.08 -2.08 l5.76 1.68 c-1.08 2.52 -4.52 5.72 -9.96 5.72 z M72.542 27.880000000000003 l9 0 c-0.2 -1.84 -1.84 -3.48 -4.48 -3.48 s-4.24 1.76 -4.52 3.48 z M96.056 22.36 c1.2 -2.2 3.4 -3.44 6.4 -3.04 l0 6 c-4.32 -0.72 -6.4 1.12 -6.4 6.16 l0 8.52 l-6.4 0 l0 -20.4 l6.4 0 l0 2.76 z M118.85 19.6 l6.84 0 l-12.12 28.8 l-6.52 0 l3.64 -8.88 l0.28 -0.04 l-0.28 0.04 l-9.16 -19.92 l7 0 l5.32 12.44 z"/></g>
			</g>
		</svg>
	